PathFileType	4	(x/y/z)	S08_PSF_T14
DataRate	CameraRate	NumFrames	NumMarkers	Units	OrigDataRate	OrigDataStartFrame	OrigNumFrames
240	240	4	51	mm	240	105	417
Frame#	Time	Sternum			R.Acromium			L.Acromium			Top.Head			R.ASIS			L.ASIS			R.PSIS			L.PSIS			R.Great.Tro			L.Great.Tro			R.Iliac.Crest			L.Iliac.Crest			V.Sacral			R.Thigh.Upper.Post			R.Thigh.Lower.Ant			R.Thigh.Lower.Post			R.Thigh.Upper.Ant			R.Knee.Lat			R.Knee.Med			R.Shank.Upper.Post			R.Shank.Lower.Ant			R.Shank.Lower.Post			R.Shank.Upper.Ant			R.Ankle.Lat			R.Ankle.Med			R.Heel.Upper			R.Heel.Med			R.Heel.Lat			R.Toe.Lat			R.Toe.Med			R.Toe.Tip			L.Thigh.Upper.Post			L.Thigh.Lower.Ant			L.Thigh.Lower.Post			L.Thigh.Upper.Ant			L.Knee.Lat			L.Knee.Med			L.Shank.Upper.Post			L.Shank.Lower.Ant			L.Shank.Lower.Post			L.Shank.Upper.Ant			L.Ankle.Lat			L.Ankle.Med			L.Heel.Upper			L.Heel.Med			L.Heel.Lat			L.Toe.Lat			L.Toe.Med			L.Toe.Tip			Cervical.Spine			Back			
		X1	Y1	Z1	X2	Y2	Z2	X3	Y3	Z3	X4	Y4	Z4	X5	Y5	Z5	X6	Y6	Z6	X7	Y7	Z7	X8	Y8	Z8	X9	Y9	Z9	X10	Y10	Z10	X11	Y11	Z11	X12	Y12	Z12	X13	Y13	Z13	X14	Y14	Z14	X15	Y15	Z15	X16	Y16	Z16	X17	Y17	Z17	X18	Y18	Z18	X19	Y19	Z19	X20	Y20	Z20	X21	Y21	Z21	X22	Y22	Z22	X23	Y23	Z23	X24	Y24	Z24	X25	Y25	Z25	X26	Y26	Z26	X27	Y27	Z27	X28	Y28	Z28	X29	Y29	Z29	X30	Y30	Z30	X31	Y31	Z31	X32	Y32	Z32	X33	Y33	Z33	X34	Y34	Z34	X35	Y35	Z35	X36	Y36	Z36	X37	Y37	Z37	X38	Y38	Z38	X39	Y39	Z39	X40	Y40	Z40	X41	Y41	Z41	X42	Y42	Z42	X43	Y43	Z43	X44	Y44	Z44	X45	Y45	Z45	X46	Y46	Z46	X47	Y47	Z47	X48	Y48	Z48	X49	Y49	Z49	X50	Y50	Z50	X51	Y51	Z51	

105	0.43333	-905.23	1224.8	294.43	-1018.2	1465.5	469.46	-1029.3	1497.5	136.33	-1010.3	1783.1	317.79	-932.28	1016.8	401.37	-932.41	1017.9	168.28	-1137.7	1038.9	330.77	-1133.4	1044.7	237.39	-986.38	909.14	474.49	-1037.1	913.83	108.04	-1028.7	1083	451.91	-1028.3	1099.9	143.97	-1151.7	1002.5	284.04	-931.07	715.02	463.67	-824.42	650.18	428.92	-892.65	633.23	443.72	-857.41	738.13	446.1	-819.39	550.29	423.48	-850.3	540.19	299.26	-854.3	361.42	438.08	-785.3	307.71	416.73	-843.71	285.23	433.21	-795.77	385.14	425.33	-819.56	116.52	402.19	-790.17	136.43	324.83	-857.71	72.045	352.7	-838.61	48.416	326.8	-849.48	49.225	387.67	NaN	NaN	NaN	-658.17	85.913	326.11	-601.95	116.58	373.25	-1083.6	720.96	120.39	-1017.6	616.78	149.18	-1083.3	630.69	139.17	-1015.4	702.94	123.99	-1095.1	521.79	164.85	-1093.8	522.89	290.29	-1188.9	355.71	166	-1140.9	258.47	192.66	-1203.3	286.94	181.59	-1130.9	330.76	174.7	-1219.4	110.03	209.25	-1198.7	111.75	294.26	-1276.7	81.152	258.13	-1265.8	46.244	287.41	-1270.7	56.094	223.87	-1095.7	39.441	190.13	-1077.5	38.876	305.57	-1011.7	51.974	256.89	-1085.2	1525.2	296.73	-1143.4	1244.9	301.46
106	0.4375	-899.89	1224	294.67	-1012.9	1464.7	469.71	-1023.9	1496.7	136.58	-1005	1782.4	318.1	-926.91	1016	401.6	-927.19	1017.1	168.49	-1132.4	1038.1	331.12	-1128.2	1044.1	237.75	-981.18	908.33	474.78	-1032.2	913.34	108.18	-1023.5	1082.2	452.24	-1023.1	1099.2	144.3	-1146.2	1001.7	284.41	-926.89	713.76	464.16	-820.51	648.62	429.37	-888.78	631.88	444.22	-853.21	736.67	446.58	-815.22	549.03	423.81	-846.45	538.67	299.63	-846.07	359.55	438.23	-775.91	307.46	416.53	-833.77	283.65	433.18	-788.11	384.64	425.29	-805.49	115.36	401.58	-776.78	136.08	324.15	-842.72	70.052	352.1	-823.16	46.904	326.09	-833.82	47.351	387	NaN	NaN	NaN	-643.72	88.687	324.83	-587.98	120.63	371.79	-1079.8	720.92	120.45	-1014.3	616.34	149.21	-1079.9	630.67	139.11	-1011.6	702.49	123.99	-1092.4	521.73	164.86	-1091	522.79	290.32	-1187.3	356.23	166.01	-1139.8	258.64	192.63	-1202.2	287.41	181.73	-1129.6	330.78	174.82	-1218.8	110.61	209.29	-1198.3	112.17	294.3	-1276.5	81.682	258.2	-1265.6	46.787	287.52	-1270.5	56.623	223.97	-1095.7	39.39	190.13	-1077.3	38.865	305.55	-1011.6	51.738	256.89	-1080	1524.4	296.93	-1137.9	1244	301.72
107	0.44167	-894.53	1223.2	294.91	-1007.5	1463.8	469.97	-1018.5	1495.9	136.85	-999.68	1781.6	318.41	-921.51	1015.1	401.84	-921.96	1016.4	168.71	-1127	1037.4	331.49	-1122.9	1043.4	238.13	-975.94	907.5	475.07	-1027.3	912.85	108.32	-1018.2	1081.4	452.57	-1017.8	1098.5	144.64	-1140.7	1001	284.78	-922.7	712.49	464.67	-816.58	647.04	429.82	-884.9	630.51	444.73	-848.98	735.18	447.08	-811.08	547.74	424.16	-842.63	537.13	300	-837.95	357.75	438.38	-766.7	307.27	416.32	-824.01	282.15	433.13	-780.59	384.16	425.25	-791.69	114.36	400.96	-763.68	135.87	323.46	-828.02	68.259	351.49	-808	45.588	325.36	-818.44	45.674	386.32	NaN	NaN	NaN	-629.63	91.564	323.54	-574.39	124.75	370.32	-1076	720.86	120.53	-1010.9	615.91	149.23	-1076.4	630.64	139.08	-1007.8	702.04	123.99	-1089.7	521.66	164.88	-1088.2	522.68	290.37	-1185.5	356.75	166.03	-1138.7	258.82	192.6	-1201.1	287.88	181.89	-1128.3	330.81	174.95	-1218.3	111.21	209.35	-1197.8	112.63	294.33	-1276.2	82.258	258.25	-1265.4	47.38	287.62	-1270.4	57.203	224.07	-1095.6	39.34	190.13	-1077.2	38.856	305.52	-1011.4	51.495	256.88	-1074.7	1523.6	297.15	-1132.3	1243.1	301.99
108	0.44583	-889.15	1222.3	295.17	-1002.2	1463	470.25	-1013	1495.1	137.13	-994.35	1780.8	318.74	-916.09	1014.3	402.08	-916.71	1015.6	168.92	-1121.4	1036.6	331.87	-1117.5	1042.7	238.52	-970.68	906.66	475.36	-1022.4	912.35	108.45	-1012.8	1080.5	452.9	-1012.5	1097.7	144.99	-1135.3	1000.2	285.16	-918.47	711.22	465.19	-812.63	645.43	430.28	-881	629.14	445.24	-844.71	733.68	447.59	-806.94	546.42	424.5	-838.85	535.58	300.38	-829.97	356.01	438.53	-757.69	307.11	416.13	-814.43	280.74	433.07	-773.2	383.69	425.23	-778.18	113.49	400.31	-750.89	135.79	322.77	-813.64	66.655	350.86	-793.17	44.456	324.61	-803.38	44.18	385.61	NaN	NaN	NaN	-615.92	94.516	322.25	-561.19	128.89	368.86	-1072.1	720.78	120.63	-1007.5	615.47	149.25	-1072.8	630.59	139.05	-1003.9	701.59	124	-1086.9	521.59	164.91	-1085.3	522.57	290.42	-1183.7	357.3	166.04	-1137.5	259.01	192.58	-1199.9	288.35	182.06	-1126.9	330.84	175.1	-1217.7	111.82	209.4	-1197.3	113.11	294.36	-1275.9	82.88	258.28	-1265.3	48.025	287.71	-1270.2	57.833	224.15	-1095.6	39.29	190.13	-1077.1	38.847	305.5	-1011.3	51.244	256.88	-1069.4	1522.8	297.38	-1126.7	1242.2	302.28
